<svg width="12" height="12" viewBox="0 0 12 12" fill="none" xmlns="http://www.w3.org/2000/svg">
<path d="M4.66634 1.33337H1.99967C1.63148 1.33337 1.33301 1.63185 1.33301 2.00004V4.66671C1.33301 5.0349 1.63148 5.33337 1.99967 5.33337H4.66634C5.03453 5.33337 5.33301 5.0349 5.33301 4.66671V2.00004C5.33301 1.63185 5.03453 1.33337 4.66634 1.33337Z" fill="#151875"/>
<path d="M10.0003 1.33337H7.33366C6.96547 1.33337 6.66699 1.63185 6.66699 2.00004V4.66671C6.66699 5.0349 6.96547 5.33337 7.33366 5.33337H10.0003C10.3685 5.33337 10.667 5.0349 10.667 4.66671V2.00004C10.667 1.63185 10.3685 1.33337 10.0003 1.33337Z" fill="#151875"/>
<path d="M4.66634 6.66663H1.99967C1.63148 6.66663 1.33301 6.9651 1.33301 7.33329V9.99996C1.33301 10.3681 1.63148 10.6666 1.99967 10.6666H4.66634C5.03453 10.6666 5.33301 10.3681 5.33301 9.99996V7.33329C5.33301 6.9651 5.03453 6.66663 4.66634 6.66663Z" fill="#151875"/>
<path d="M10.0003 6.66663H7.33366C6.96547 6.66663 6.66699 6.9651 6.66699 7.33329V9.99996C6.66699 10.3681 6.96547 10.6666 7.33366 10.6666H10.0003C10.3685 10.6666 10.667 10.3681 10.667 9.99996V7.33329C10.667 6.9651 10.3685 6.66663 10.0003 6.66663Z" fill="#151875"/>
</svg>
