<svg width="16" height="16" viewBox="0 0 16 16" fill="none" xmlns="http://www.w3.org/2000/svg">
<path d="M0.246582 1.18519C0.246582 1.01128 0.315665 0.844501 0.438634 0.721532C0.561603 0.598563 0.728384 0.52948 0.902289 0.52948H1.39013C2.2207 0.52948 2.71903 1.08814 3.00317 1.60746C3.19289 1.95367 3.33015 2.35497 3.43769 2.71867C3.46677 2.71637 3.49594 2.7152 3.52511 2.71517H14.4518C15.1775 2.71517 15.702 3.40934 15.5027 4.10789L13.9045 9.71112C13.7612 10.2137 13.4581 10.6559 13.041 10.9708C12.6239 11.2857 12.1155 11.4561 11.5929 11.4562H6.39274C5.86598 11.4562 5.3538 11.2832 4.93491 10.9638C4.51602 10.6445 4.21361 10.1964 4.07416 9.68839L3.40971 7.2649L2.30812 3.55098L2.30725 3.54398C2.17086 3.04827 2.04322 2.58403 1.85263 2.23781C1.6699 1.90122 1.52302 1.84089 1.39101 1.84089H0.902289C0.728384 1.84089 0.561603 1.77181 0.438634 1.64884C0.315665 1.52587 0.246582 1.35909 0.246582 1.18519ZM4.68178 6.94666L5.33836 9.3413C5.4695 9.81516 5.90052 10.1448 6.39274 10.1448H11.5929C11.8305 10.1448 12.0615 10.0674 12.2512 9.92427C12.4408 9.78119 12.5786 9.58022 12.6438 9.35179L14.1624 4.02658H3.818L4.66954 6.90032L4.68178 6.94666Z" fill="#535399"/>
<path d="M7.67777 14.0808C7.67777 14.5445 7.49354 14.9893 7.16563 15.3172C6.83771 15.6451 6.39296 15.8293 5.92921 15.8293C5.46547 15.8293 5.02072 15.6451 4.6928 15.3172C4.36489 14.9893 4.18066 14.5445 4.18066 14.0808C4.18066 13.617 4.36489 13.1723 4.6928 12.8444C5.02072 12.5164 5.46547 12.3322 5.92921 12.3322C6.39296 12.3322 6.83771 12.5164 7.16563 12.8444C7.49354 13.1723 7.67777 13.617 7.67777 14.0808V14.0808ZM6.36635 14.0808C6.36635 13.9648 6.3203 13.8536 6.23832 13.7717C6.15634 13.6897 6.04515 13.6436 5.92921 13.6436C5.81328 13.6436 5.70209 13.6897 5.62011 13.7717C5.53813 13.8536 5.49208 13.9648 5.49208 14.0808C5.49208 14.1967 5.53813 14.3079 5.62011 14.3899C5.70209 14.4718 5.81328 14.5179 5.92921 14.5179C6.04515 14.5179 6.15634 14.4718 6.23832 14.3899C6.3203 14.3079 6.36635 14.1967 6.36635 14.0808Z" fill="#535399"/>
<path d="M13.7974 14.0808C13.7974 14.5445 13.6132 14.9893 13.2853 15.3172C12.9573 15.6451 12.5126 15.8293 12.0488 15.8293C11.5851 15.8293 11.1403 15.6451 10.8124 15.3172C10.4845 14.9893 10.3003 14.5445 10.3003 14.0808C10.3003 13.617 10.4845 13.1723 10.8124 12.8444C11.1403 12.5164 11.5851 12.3322 12.0488 12.3322C12.5126 12.3322 12.9573 12.5164 13.2853 12.8444C13.6132 13.1723 13.7974 13.617 13.7974 14.0808V14.0808ZM12.486 14.0808C12.486 13.9648 12.4399 13.8536 12.3579 13.7717C12.276 13.6897 12.1648 13.6436 12.0488 13.6436C11.9329 13.6436 11.8217 13.6897 11.7397 13.7717C11.6578 13.8536 11.6117 13.9648 11.6117 14.0808C11.6117 14.1967 11.6578 14.3079 11.7397 14.3899C11.8217 14.4718 11.9329 14.5179 12.0488 14.5179C12.1648 14.5179 12.276 14.4718 12.3579 14.3899C12.4399 14.3079 12.486 14.1967 12.486 14.0808Z" fill="#535399"/>
</svg>
