<svg width="16" height="16" viewBox="0 0 16 16" fill="none" xmlns="http://www.w3.org/2000/svg">
<rect width="16" height="16" fill="#603EFF"/>
<path d="M12.473 4.80663C12.411 4.74415 12.3373 4.69455 12.256 4.66071C12.1748 4.62686 12.0876 4.60944 11.9996 4.60944C11.9116 4.60944 11.8245 4.62686 11.7433 4.66071C11.662 4.69455 11.5883 4.74415 11.5263 4.80663L6.55964 9.77997L4.47297 7.68663C4.40863 7.62448 4.33267 7.5756 4.24943 7.5428C4.16619 7.50999 4.07731 7.49391 3.98786 7.49546C3.8984 7.497 3.81013 7.51615 3.72808 7.55182C3.64602 7.58748 3.5718 7.63895 3.50964 7.7033C3.44748 7.76765 3.39861 7.84361 3.3658 7.92685C3.333 8.01008 3.31691 8.09897 3.31846 8.18842C3.32001 8.27787 3.33916 8.36615 3.37482 8.4482C3.41049 8.53025 3.46196 8.60448 3.52631 8.66664L6.08631 11.2266C6.14828 11.2891 6.22202 11.3387 6.30326 11.3726C6.3845 11.4064 6.47163 11.4238 6.55964 11.4238C6.64765 11.4238 6.73479 11.4064 6.81603 11.3726C6.89726 11.3387 6.971 11.2891 7.03297 11.2266L12.473 5.78664C12.5406 5.72421 12.5946 5.64844 12.6316 5.56411C12.6685 5.47977 12.6876 5.3887 12.6876 5.29664C12.6876 5.20457 12.6685 5.1135 12.6316 5.02916C12.5946 4.94483 12.5406 4.86906 12.473 4.80663Z" fill="white"/>
</svg>
