<svg width="18" height="17" viewBox="0 0 18 17" fill="none" xmlns="http://www.w3.org/2000/svg">
<path d="M15.9764 2.39217C15.0971 1.51256 13.9312 0.977771 12.6909 0.885051C11.4506 0.792332 10.2182 1.14784 9.21784 1.88693C8.164 1.1031 6.85232 0.747668 5.54692 0.892221C4.24152 1.03677 3.03937 1.67057 2.18257 2.66598C1.32576 3.66139 0.87793 4.94447 0.929265 6.25685C0.980599 7.56922 1.52728 8.8134 2.45923 9.73884L8.62977 15.9094C8.70677 15.987 8.79837 16.0486 8.89931 16.0907C9.00024 16.1327 9.1085 16.1544 9.21784 16.1544C9.32718 16.1544 9.43543 16.1327 9.53637 16.0907C9.6373 16.0486 9.7289 15.987 9.8059 15.9094L15.9764 9.73884C16.459 9.25657 16.8419 8.68392 17.1031 8.05364C17.3643 7.42335 17.4987 6.74777 17.4987 6.06551C17.4987 5.38324 17.3643 4.70767 17.1031 4.07738C16.8419 3.44709 16.459 2.87445 15.9764 2.39217V2.39217ZM14.8086 8.571L9.21784 14.1535L3.62707 8.571C3.1344 8.07628 2.79879 7.44709 2.66234 6.76236C2.52589 6.07763 2.59467 5.36785 2.86007 4.72206C3.12546 4.07628 3.57564 3.52324 4.15414 3.13232C4.73263 2.74141 5.41368 2.53003 6.11186 2.52469C7.04457 2.52698 7.93825 2.89934 8.59664 3.56002C8.67364 3.63765 8.76524 3.69927 8.86618 3.74132C8.96711 3.78337 9.07537 3.80502 9.18471 3.80502C9.29405 3.80502 9.4023 3.78337 9.50324 3.74132C9.60417 3.69927 9.69577 3.63765 9.77277 3.56002C10.4506 2.97268 11.3262 2.66479 12.2224 2.69865C13.1186 2.73251 13.9685 3.10559 14.6 3.74239C15.2316 4.37919 15.5976 5.23214 15.624 6.12861C15.6504 7.02508 15.3353 7.89811 14.7423 8.571H14.8086Z" fill="#535399"/>
</svg>
