<svg width="11" height="10" viewBox="0 0 11 10" fill="none" xmlns="http://www.w3.org/2000/svg">
<path d="M10.2447 3.40728C10.2395 3.01511 10.1661 2.62684 10.0277 2.25983C9.90779 1.95027 9.72458 1.66913 9.48983 1.43437C9.25508 1.19962 8.97394 1.01642 8.66437 0.896467C8.30208 0.760471 7.91935 0.686935 7.53246 0.678992C7.03434 0.656726 6.87641 0.650513 5.61194 0.650513C4.34748 0.650513 4.18541 0.650513 3.69091 0.678992C3.30419 0.686994 2.92164 0.760529 2.55952 0.896467C2.2499 1.01633 1.96872 1.19951 1.73395 1.43427C1.49919 1.66903 1.31601 1.95022 1.19615 2.25983C1.05988 2.62184 0.986505 3.00449 0.979192 3.39122C0.956927 3.88987 0.950195 4.04779 0.950195 5.31226C0.950195 6.57673 0.950195 6.73828 0.979192 7.2333C0.986959 7.62061 1.05997 8.00275 1.19615 8.36572C1.31622 8.67524 1.49953 8.95631 1.73437 9.19098C1.96921 9.42564 2.25042 9.60874 2.56003 9.72857C2.92116 9.87003 3.30379 9.94883 3.69143 9.96158C4.19007 9.98384 4.34799 9.99058 5.61246 9.99058C6.87693 9.99058 7.039 9.99058 7.5335 9.96158C7.92037 9.95396 8.30313 9.8806 8.6654 9.74462C8.97489 9.62453 9.25596 9.44128 9.49069 9.20655C9.72543 8.97181 9.90868 8.69074 10.0288 8.38126C10.165 8.0188 10.238 7.63666 10.2457 7.24883C10.268 6.75071 10.2747 6.59278 10.2747 5.32779C10.2737 4.06333 10.2737 3.90281 10.2447 3.40728ZM5.60884 7.70346C4.28638 7.70346 3.21505 6.63213 3.21505 5.30967C3.21505 3.98721 4.28638 2.91588 5.60884 2.91588C6.24371 2.91588 6.85258 3.16809 7.3015 3.61701C7.75042 4.06593 8.00262 4.6748 8.00262 5.30967C8.00262 5.94454 7.75042 6.55341 7.3015 7.00233C6.85258 7.45126 6.24371 7.70346 5.60884 7.70346ZM8.0979 3.38553C7.78877 3.38553 7.53971 3.13595 7.53971 2.82734C7.53971 2.75407 7.55414 2.68152 7.58218 2.61383C7.61022 2.54614 7.65132 2.48463 7.70312 2.43283C7.75493 2.38102 7.81644 2.33992 7.88413 2.31188C7.95182 2.28384 8.02437 2.26941 8.09764 2.26941C8.17091 2.26941 8.24346 2.28384 8.31115 2.31188C8.37884 2.33992 8.44035 2.38102 8.49215 2.43283C8.54396 2.48463 8.58506 2.54614 8.6131 2.61383C8.64114 2.68152 8.65557 2.75407 8.65557 2.82734C8.65557 3.13595 8.40599 3.38553 8.0979 3.38553Z" fill="white"/>
</svg>
