<svg width="16" height="16" viewBox="0 0 16 16" fill="none" xmlns="http://www.w3.org/2000/svg">
<path d="M13.4399 3.07329C12.7321 2.3653 11.7937 1.93484 10.7953 1.86021C9.79701 1.78558 8.80505 2.07173 7.99986 2.66662C7.15163 2.03572 6.09585 1.74963 5.04514 1.86598C3.99442 1.98233 3.02682 2.49248 2.33717 3.29368C1.64753 4.09488 1.28707 5.12764 1.32839 6.18397C1.36971 7.2403 1.80974 8.24174 2.55986 8.98662L7.52652 13.9533C7.5885 14.0158 7.66223 14.0654 7.74347 14.0992C7.82471 14.1331 7.91185 14.1505 7.99986 14.1505C8.08787 14.1505 8.175 14.1331 8.25624 14.0992C8.33748 14.0654 8.41122 14.0158 8.47319 13.9533L13.4399 8.98662C13.8283 8.59844 14.1364 8.13752 14.3467 7.6302C14.5569 7.12288 14.6651 6.57911 14.6651 6.02996C14.6651 5.4808 14.5569 4.93703 14.3467 4.42971C14.1364 3.92239 13.8283 3.46147 13.4399 3.07329ZM12.4999 8.04662L7.99986 12.54L3.49986 8.04662C3.10331 7.64842 2.83317 7.14199 2.72334 6.59085C2.61351 6.03971 2.66888 5.46841 2.88249 4.94862C3.09611 4.42883 3.45846 3.98369 3.92409 3.66904C4.38972 3.35439 4.9379 3.18425 5.49986 3.17996C6.2506 3.1818 6.96992 3.48151 7.49986 4.01329C7.56183 4.07578 7.63557 4.12537 7.71681 4.15922C7.79805 4.19306 7.88518 4.21049 7.97319 4.21049C8.0612 4.21049 8.14834 4.19306 8.22958 4.15922C8.31082 4.12537 8.38455 4.07578 8.44652 4.01329C8.99207 3.54055 9.69685 3.29272 10.4182 3.31997C11.1396 3.34723 11.8237 3.64752 12.332 4.16008C12.8403 4.67264 13.1349 5.35918 13.1562 6.08075C13.1774 6.80232 12.9238 7.50502 12.4465 8.04662H12.4999Z" fill="white"/>
</svg>
