<svg width="14" height="12" viewBox="0 0 14 12" fill="none" xmlns="http://www.w3.org/2000/svg">
<path d="M11.6663 0.666626H2.33301C1.80257 0.666626 1.29387 0.87734 0.918794 1.25241C0.543722 1.62749 0.333008 2.13619 0.333008 2.66663V9.33329C0.333008 9.86372 0.543722 10.3724 0.918794 10.7475C1.29387 11.1226 1.80257 11.3333 2.33301 11.3333H11.6663C12.1968 11.3333 12.7055 11.1226 13.0806 10.7475C13.4556 10.3724 13.6663 9.86372 13.6663 9.33329V2.66663C13.6663 2.13619 13.4556 1.62749 13.0806 1.25241C12.7055 0.87734 12.1968 0.666626 11.6663 0.666626ZM2.33301 1.99996H11.6663C11.8432 1.99996 12.0127 2.0702 12.1377 2.19522C12.2628 2.32025 12.333 2.48981 12.333 2.66663L6.99967 5.91996L1.66634 2.66663C1.66634 2.48981 1.73658 2.32025 1.8616 2.19522C1.98663 2.0702 2.1562 1.99996 2.33301 1.99996ZM12.333 9.33329C12.333 9.5101 12.2628 9.67967 12.1377 9.8047C12.0127 9.92972 11.8432 9.99996 11.6663 9.99996H2.33301C2.1562 9.99996 1.98663 9.92972 1.8616 9.8047C1.73658 9.67967 1.66634 9.5101 1.66634 9.33329V4.18663L6.65301 7.23329C6.75435 7.2918 6.86932 7.32261 6.98634 7.32261C7.10337 7.32261 7.21833 7.2918 7.31967 7.23329L12.333 4.18663V9.33329Z" fill="white"/>
</svg>
