<svg width="15" height="15" viewBox="0 0 15 15" fill="none" xmlns="http://www.w3.org/2000/svg">
<path d="M9.64353 6.04062H7.43484V3.83192C7.43484 3.63666 7.35727 3.4494 7.2192 3.31133C7.08113 3.17326 6.89386 3.09569 6.6986 3.09569C6.50334 3.09569 6.31608 3.17326 6.17801 3.31133C6.03994 3.4494 5.96237 3.63666 5.96237 3.83192V6.04062H3.75368C3.55842 6.04062 3.37115 6.11819 3.23308 6.25626C3.09501 6.39433 3.01744 6.58159 3.01744 6.77685C3.01744 6.97211 3.09501 7.15937 3.23308 7.29744C3.37115 7.43552 3.55842 7.51308 3.75368 7.51308H5.96237V9.72178C5.96237 9.91704 6.03994 10.1043 6.17801 10.2424C6.31608 10.3804 6.50334 10.458 6.6986 10.458C6.89386 10.458 7.08113 10.3804 7.2192 10.2424C7.35727 10.1043 7.43484 9.91704 7.43484 9.72178V7.51308H9.64353C9.83879 7.51308 10.0261 7.43552 10.1641 7.29744C10.3022 7.15937 10.3798 6.97211 10.3798 6.77685C10.3798 6.58159 10.3022 6.39433 10.1641 6.25626C10.0261 6.11819 9.83879 6.04062 9.64353 6.04062ZM14.5836 13.6164L11.8522 10.9071C12.9125 9.58514 13.4259 7.90719 13.287 6.21827C13.1481 4.52936 12.3673 2.95786 11.1053 1.8269C9.84332 0.695948 8.19596 0.0915043 6.50197 0.137858C4.80799 0.184211 3.19614 0.877838 1.99787 2.07611C0.799591 3.27439 0.105964 4.88624 0.0596107 6.58022C0.0132573 8.2742 0.617701 9.92157 1.74865 11.1836C2.87961 12.4456 4.45111 13.2263 6.14002 13.3653C7.82894 13.5042 9.50689 12.9907 10.8289 11.9305L13.5382 14.6398C13.6066 14.7088 13.6881 14.7636 13.7778 14.801C13.8675 14.8383 13.9637 14.8576 14.0609 14.8576C14.1581 14.8576 14.2543 14.8383 14.3441 14.801C14.4338 14.7636 14.5152 14.7088 14.5836 14.6398C14.7163 14.5025 14.7905 14.3191 14.7905 14.1281C14.7905 13.9372 14.7163 13.7537 14.5836 13.6164V13.6164ZM6.6986 11.9305C5.67931 11.9305 4.68291 11.6282 3.8354 11.0619C2.98789 10.4956 2.32734 9.69076 1.93728 8.74906C1.54721 7.80736 1.44515 6.77113 1.64401 5.77143C1.84286 4.77172 2.33369 3.85344 3.05444 3.13269C3.77519 2.41194 4.69348 1.92111 5.69318 1.72225C6.69289 1.5234 7.72911 1.62546 8.67081 2.01552C9.61251 2.40559 10.4174 3.06614 10.9837 3.91365C11.55 4.76116 11.8522 5.75756 11.8522 6.77685C11.8522 8.14368 11.3093 9.45452 10.3428 10.421C9.37627 11.3875 8.06543 11.9305 6.6986 11.9305V11.9305Z" fill="#535399"/>
</svg>
