<svg width="12" height="11" viewBox="0 0 12 11" fill="none" xmlns="http://www.w3.org/2000/svg">
<path d="M11.9329 1.66303C11.5006 1.85461 11.0361 1.98406 10.5478 2.04257C11.0516 1.74111 11.4286 1.26664 11.6083 0.707688C11.1349 0.988848 10.6169 1.18675 10.0766 1.2928C9.71332 0.9049 9.23212 0.647792 8.70773 0.561396C8.18334 0.475001 7.64509 0.56415 7.17655 0.815004C6.70802 1.06586 6.33541 1.46438 6.11657 1.9487C5.89774 2.43302 5.84493 2.97604 5.96633 3.49345C5.0072 3.44529 4.06892 3.196 3.21238 2.76175C2.35583 2.3275 1.60016 1.718 0.994422 0.972802C0.787302 1.33008 0.668208 1.74432 0.668208 2.18549C0.667977 2.58264 0.765779 2.9737 0.952935 3.32399C1.14009 3.67428 1.41082 3.97295 1.74109 4.19351C1.35806 4.18133 0.983482 4.07783 0.648532 3.89164V3.9227C0.648493 4.47972 0.84117 5.0196 1.19387 5.45073C1.54657 5.88186 2.03757 6.17768 2.58355 6.28801C2.22823 6.38417 1.8557 6.39834 1.4941 6.32944C1.64814 6.80872 1.94821 7.22783 2.35228 7.5281C2.75636 7.82837 3.24422 7.99477 3.74756 8.004C2.89311 8.67476 1.83786 9.03861 0.751574 9.03701C0.55915 9.03706 0.366889 9.02582 0.175781 9.00335C1.27842 9.71231 2.56198 10.0886 3.87287 10.0871C8.31041 10.0871 10.7363 6.41176 10.7363 3.22419C10.7363 3.12063 10.7337 3.01604 10.729 2.91248C11.2009 2.57123 11.6082 2.14867 11.9319 1.66458L11.9329 1.66303V1.66303Z" fill="white"/>
</svg>
